<svg xmlns="http://www.w3.org/2000/svg" width="1254" height="1254" viewBox="0 0 1254 1254" role="img" aria-labelledby="title desc">
  <title id="title">OpenCollab brand guidelines</title>
  <desc id="desc">Editable vector recreation of the OpenCollab logo and visual identity board.</desc>
  <defs>
    <linearGradient id="brandGrad" x1="0" y1="0" x2="1" y2="0">
      <stop offset="0" stop-color="#7C3AED"/>
      <stop offset="1" stop-color="#2563EB"/>
    </linearGradient>
    <linearGradient id="colorBar" gradientUnits="userSpaceOnUse" x1="70" y1="0" x2="449" y2="0">
      <stop offset="0" stop-color="#7C3AED"/>
      <stop offset="1" stop-color="#2563EB"/>
    </linearGradient>
    <linearGradient id="footerBar" gradientUnits="userSpaceOnUse" x1="96" y1="0" x2="1138" y2="0">
      <stop offset="0" stop-color="#7C3AED"/>
      <stop offset="1" stop-color="#2563EB"/>
    </linearGradient>
    <filter id="shadow" x="-30%" y="-30%" width="160%" height="180%">
      <feDropShadow dx="0" dy="5" stdDeviation="7" flood-color="#0F172A" flood-opacity=".10"/>
    </filter>
    <!-- Each node cuts a circular notch out of the constant-width ring. -->
    <mask id="arcCutMask" maskUnits="userSpaceOnUse" x="-80" y="-80" width="160" height="160">
      <rect x="-80" y="-80" width="160" height="160" fill="#FFFFFF"/>
      <circle cx="0" cy="-52" r="20" fill="#000000"/>
      <circle cx="49" cy="-17" r="20" fill="#000000"/>
      <circle cx="30" cy="43" r="20" fill="#000000"/>
      <circle cx="-30" cy="43" r="20" fill="#000000"/>
      <circle cx="-49" cy="-17" r="20" fill="#000000"/>
    </mask>

    <g id="mark">
      <circle r="52" fill="none" stroke="url(#brandGrad)" stroke-width="10" mask="url(#arcCutMask)"/>
      <circle cx="0" cy="-52" r="14.5" fill="#713AED"/>
      <circle cx="49" cy="-17" r="14.5" fill="#2A53EB"/>
      <circle cx="30" cy="43" r="14.5" fill="#2563EB"/>
      <circle cx="-30" cy="43" r="14.5" fill="#5556EC"/>
      <circle cx="-49" cy="-17" r="14.5" fill="#7C3AED"/>
    </g>
    <g id="mark-wire" fill="none" stroke="#B7BFCC" stroke-width="1.2">
      <circle r="52" stroke-width="10" opacity=".5" mask="url(#arcCutMask)"/>
      <circle cx="0" cy="-52" r="14.5"/>
      <circle cx="49" cy="-17" r="14.5"/>
      <circle cx="30" cy="43" r="14.5"/>
      <circle cx="-30" cy="43" r="14.5"/>
      <circle cx="-49" cy="-17" r="14.5"/>
      <circle r="55" opacity=".35"/>
    </g>
    <g id="mark-dark" fill="#07101F" stroke="#07101F">
      <circle r="52" fill="none" stroke-width="10" mask="url(#arcCutMask)"/>
      <circle cx="0" cy="-52" r="14.5"/><circle cx="49" cy="-17" r="14.5"/><circle cx="30" cy="43" r="14.5"/><circle cx="-30" cy="43" r="14.5"/><circle cx="-49" cy="-17" r="14.5"/>
    </g>
    <g id="mark-gray" fill="#AEB3BB" stroke="#AEB3BB">
      <circle r="52" fill="none" stroke-width="10" mask="url(#arcCutMask)"/>
      <circle cx="0" cy="-52" r="14.5"/><circle cx="49" cy="-17" r="14.5"/><circle cx="30" cy="43" r="14.5"/><circle cx="-30" cy="43" r="14.5"/><circle cx="-49" cy="-17" r="14.5"/>
    </g>
    <g id="mark-white" fill="#FFFFFF" stroke="#FFFFFF">
      <circle r="52" fill="none" stroke-width="10" mask="url(#arcCutMask)"/>
      <circle cx="0" cy="-52" r="14.5"/><circle cx="49" cy="-17" r="14.5"/><circle cx="30" cy="43" r="14.5"/><circle cx="-30" cy="43" r="14.5"/><circle cx="-49" cy="-17" r="14.5"/>
    </g>
    <style>
      text { font-family: "Helvetica Neue", Helvetica, Arial, sans-serif; font-kerning:normal; text-rendering:geometricPrecision }
      .wordmark { font-family:"Avenir Next", Avenir, "Helvetica Neue", Helvetica, Arial, sans-serif }
      .label { font-size:13.5px; font-weight:700; letter-spacing:-.35px }
      .body { font-size:12.8px; font-weight:400; letter-spacing:-.08px; fill:#253047 }
      .small { font-size:11.25px; letter-spacing:-.05px; fill:#38445B }
      .micro { font-size:9.75px; fill:#536077 }
      .rule { stroke:#D7DCE5; stroke-width:1 }
      .guide { stroke:#CBD2DE; stroke-width:1; stroke-dasharray:4 4; fill:none }
    </style>
  </defs>

  <rect width="1254" height="1254" fill="#FFFFFF"/>

  <!-- Hero -->
  <g transform="translate(208 164) scale(1.75)"><use href="#mark"/></g>
  <text class="wordmark" x="374" y="201" font-size="138" font-weight="650" letter-spacing="-7">OpenCollab</text>
  <text x="374" y="276" font-size="32" font-weight="500" fill="#253047" letter-spacing="-.7">An Operating Theory of Organized Intelligence.</text>
  <line class="rule" x1="47" y1="338" x2="1207" y2="338"/>

  <!-- Row 1 headings -->
  <text class="label" x="48" y="368">PRIMARY MARK</text>
  <text class="label" x="405" y="368">MARK CONSTRUCTION</text>
  <text class="label" x="883" y="368">VISUAL PRINCIPLES</text>
  <line class="rule" x1="369" y1="360" x2="369" y2="616" opacity=".75"/>
  <line class="rule" x1="848" y1="360" x2="848" y2="616" opacity=".75"/>

  <!-- Primary mark -->
  <g transform="translate(192 501) scale(1.5)"><use href="#mark"/></g>

  <!-- Construction -->
  <g transform="translate(498 500) scale(1.25)"><use href="#mark-wire"/></g>
  <path class="guide" d="M407 500H588 M498 409V590" opacity=".22"/>
  <g transform="translate(730 501)">
    <path class="guide" d="M-84 0H84M0-84V84" opacity=".24"/>
    <g transform="scale(1.13)"><use href="#mark"/></g>
  </g>

  <!-- Visual principles -->
  <circle cx="918" cy="428" r="18" fill="none" stroke="url(#brandGrad)" stroke-width="2.5"/>
  <text class="body" x="966" y="416" font-weight="700" fill="#07101F">Organization</text>
  <text class="body" x="966" y="436">Not linear. Not centralized.</text>
  <text class="body" x="966" y="454">A composition of relations.</text>
  <circle cx="918" cy="507" r="18" fill="none" stroke="url(#brandGrad)" stroke-width="2.5"/>
  <text class="body" x="966" y="496" font-weight="700" fill="#07101F">Control</text>
  <text class="body" x="966" y="516">Authority may move.</text>
  <text class="body" x="966" y="534">Organization remains.</text>
  <g transform="translate(918 587) scale(.32)"><use href="#mark"/></g>
  <text class="body" x="966" y="576" font-weight="700" fill="#07101F">Emergence</text>
  <text class="body" x="966" y="596">Intelligence arises from</text>
  <text class="body" x="966" y="614">the whole, not the parts.</text>

  <!-- Row 2 -->
  <line class="rule" x1="47" y1="648" x2="1207" y2="648"/>
  <text class="label" x="48" y="679">COLOR SYSTEM</text>
  <text class="label" x="883" y="679">CLEAR SPACE</text>
  <line class="rule" x1="848" y1="664" x2="848" y2="816" opacity=".75"/>

  <!-- Color supports display recognition; geometry remains valid in monochrome. -->
  <rect x="70" y="734.5" width="379" height="9" rx="4.5" fill="url(#colorBar)"/>
  <text class="small" x="70" y="772">#7C3AED</text><text class="small" x="70" y="790" fill="#07101F">Purple</text>
  <text class="small" x="449" y="772" text-anchor="end">#2563EB</text><text class="small" x="449" y="790" text-anchor="end" fill="#07101F">Research Blue</text>
  <circle cx="544" cy="740" r="19" fill="#7C3AED"/>
  <circle cx="615" cy="740" r="19" fill="#2563EB"/>
  <circle cx="686" cy="740" r="19" fill="#0F172A"/>
  <circle cx="756" cy="740" r="19" fill="#E2E8F0"/>
  <text class="small" x="544" y="790" text-anchor="middle">#7C3AED</text>
  <text class="small" x="615" y="790" text-anchor="middle">#2563EB</text>
  <text class="small" x="686" y="790" text-anchor="middle">#0F172A</text>
  <text class="small" x="756" y="790" text-anchor="middle">#E2E8F0</text>

  <!-- Clear space -->
  <rect x="903" y="707" width="141" height="109" class="guide"/>
  <path class="guide" d="M918 694V824M1029 694V824M891 707H1055M891 816H1055" opacity=".5"/>
  <g transform="translate(974 762) scale(.72)"><use href="#mark"/></g>
  <text class="micro" x="973" y="701">x</text><text class="micro" x="973" y="831">x</text>
  <text class="micro" x="891" y="766">x</text><text class="micro" x="1048" y="766">x</text>
  <text class="small" x="1084" y="736">Clear space</text><text class="small" x="1084" y="755">is defined by</text><text class="small" x="1084" y="774">the diameter</text><text class="small" x="1084" y="793">of one node (x).</text>

  <!-- Row 3 -->
  <line class="rule" x1="47" y1="845" x2="1207" y2="845"/>
  <text class="label" x="48" y="874">SIZE &amp; LEGIBILITY</text>
  <text class="label" x="727" y="874">MONOCHROME</text>
  <line class="rule" x1="692" y1="864" x2="692" y2="1008" opacity=".75"/>

  <g transform="translate(133 929) scale(.62)"><use href="#mark"/></g>
  <text class="small" x="133" y="989" text-anchor="middle">64px+</text><text class="small" x="133" y="1006" text-anchor="middle">Full detail</text>
  <g transform="translate(304 929) scale(.48)"><use href="#mark"/></g>
  <text class="small" x="304" y="989" text-anchor="middle">48px+</text><text class="small" x="304" y="1006" text-anchor="middle">Full detail</text>
  <g transform="translate(452 929) scale(.34)"><use href="#mark"/></g>
  <text class="small" x="452" y="989" text-anchor="middle">32px+</text><text class="small" x="452" y="1006" text-anchor="middle">Simplified arcs</text>
  <g transform="translate(590 929) scale(.27)"><use href="#mark"/></g>
  <text class="small" x="590" y="989" text-anchor="middle">24px+</text><text class="small" x="590" y="1006" text-anchor="middle">Simplified arcs</text>

  <g transform="translate(800 945) scale(.58)"><use href="#mark-dark"/></g>
  <g transform="translate(941 945) scale(.58)"><use href="#mark-gray"/></g>
  <rect x="1040" y="901" width="90" height="90" rx="17" fill="#030712" filter="url(#shadow)"/>
  <g transform="translate(1085 946) scale(.49)"><use href="#mark-white"/></g>

  <!-- Applications -->
  <line class="rule" x1="47" y1="1028" x2="1207" y2="1028"/>
  <text class="label" x="48" y="1058">APPLICATIONS</text>

  <g filter="url(#shadow)">
    <rect x="45" y="1073" width="198" height="99" rx="12" fill="#FFFFFF"/>
    <rect x="283" y="1073" width="164" height="99" rx="12" fill="#FFFFFF"/>
    <rect x="488" y="1073" width="90" height="92" rx="16" fill="#050B19"/>
    <rect x="640" y="1073" width="103" height="92" rx="16" fill="#FFFFFF"/>
    <rect x="785" y="1073" width="198" height="99" rx="12" fill="#050B19"/>
    <rect x="1017" y="1060" width="190" height="117" rx="13" fill="#FFFFFF"/>
  </g>

  <!-- Horizontal lockup -->
  <g transform="translate(78 1124) scale(.34)"><use href="#mark"/></g>
  <text class="wordmark" x="108" y="1136" font-size="24" font-weight="650" letter-spacing="-1.2">OpenCollab</text>
  <text class="small" x="144" y="1197" text-anchor="middle">Horizontal Lockup</text>

  <!-- Stacked lockup -->
  <g transform="translate(365 1105) scale(.35)"><use href="#mark"/></g>
  <text class="wordmark" x="365" y="1157" font-size="20" font-weight="650" text-anchor="middle" letter-spacing="-.8">OpenCollab</text>
  <text class="small" x="365" y="1197" text-anchor="middle">Stacked Lockup</text>

  <!-- App -->
  <g transform="translate(533 1119) scale(.56)"><use href="#mark"/></g>
  <text class="small" x="533" y="1197" text-anchor="middle">App / Favicon</text>

  <!-- Light background -->
  <g transform="translate(692 1119) scale(.56)"><use href="#mark"/></g>
  <text class="small" x="692" y="1197" text-anchor="middle">Light Background</text>

  <!-- Dark background -->
  <g transform="translate(823 1122) scale(.38)"><use href="#mark"/></g>
  <text class="wordmark" x="852" y="1135" font-size="23" font-weight="650" fill="#FFFFFF" letter-spacing="-1">OpenCollab</text>
  <text class="small" x="884" y="1197" text-anchor="middle">Dark Background</text>

  <!-- Brand element -->
  <text x="1035" y="1094" font-size="13.5" font-weight="650">An Operating Theory of</text>
  <text x="1035" y="1112" font-size="13.5" font-weight="650">Organized Intelligence.</text>
  <line x1="1036" y1="1158" x2="1070" y2="1158" stroke="url(#brandGrad)" stroke-width="2"/>
  <g transform="translate(1180 1148) scale(.28)"><use href="#mark"/></g>
  <text class="small" x="1112" y="1197" text-anchor="middle">Brand Element</text>

  <!-- Footer -->
  <line x1="96" y1="1234" x2="449" y2="1234" stroke="url(#footerBar)" stroke-width="1.2"/>
  <text x="470" y="1239" font-size="17" font-weight="500" fill="url(#footerBar)">An Operating Theory of Organized Intelligence.</text>
  <line x1="839" y1="1234" x2="1138" y2="1234" stroke="url(#footerBar)" stroke-width="1.2"/>
</svg>
