<svg xmlns="http://www.w3.org/2000/svg" viewBox="0 0 859.19 662.71" role="img" aria-labelledby="title desc">
  <title id="title">OpenCollab</title>
  <desc id="desc">OpenCollab stacked brand lockup.</desc>
  <defs>
    <linearGradient id="g" x1="0" y1="0" x2="1" y2="0">
      <stop offset="0" stop-color="#7C3AED"/>
      <stop offset="1" stop-color="#2563EB"/>
    </linearGradient>
    <mask id="cut" maskUnits="userSpaceOnUse" x="0" y="0" width="512" height="512">
      <rect x="0" y="0" width="512" height="512" fill="#fff"/>
      <circle cx="256" cy="96" r="62" fill="#000"/>
      <circle cx="408.17" cy="206.56" r="62" fill="#000"/>
      <circle cx="350.05" cy="385.44" r="62" fill="#000"/>
      <circle cx="161.95" cy="385.44" r="62" fill="#000"/>
      <circle cx="103.83" cy="206.56" r="62" fill="#000"/>
    </mask>
  </defs>
  <g transform="translate(173.59 -15)">
    <circle cx="256" cy="256" r="160" fill="none" stroke="url(#g)" stroke-width="31" mask="url(#cut)"/>
    <circle cx="256" cy="96" r="45" fill="#713AED"/>
    <circle cx="408.17" cy="206.56" r="45" fill="#2A53EB"/>
    <circle cx="350.05" cy="385.44" r="45" fill="#2563EB"/>
    <circle cx="161.95" cy="385.44" r="45" fill="#5556EC"/>
    <circle cx="103.83" cy="206.56" r="45" fill="#7C3AED"/>
  </g>
  <path d="M1507 711Q1507 491 1420.0 324.0Q1333 157 1171.0 68.5Q1009 -20 793 -20Q461 -20 272.5 175.5Q84 371 84 711Q84 1050 272.0 1240.0Q460 1430 795 1430Q1130 1430 1318.5 1238.0Q1507 1046 1507 711ZM1206 711Q1206 939 1098.0 1068.5Q990 1198 795 1198Q597 1198 489.0 1069.5Q381 941 381 711Q381 479 491.5 345.5Q602 212 793 212Q991 212 1098.5 342.0Q1206 472 1206 711ZM2760.0 546Q2760.0 275 2651.5 127.5Q2543.0 -20 2345.0 -20Q2231.0 -20 2146.5 29.5Q2062.0 79 2017.0 172H2011.0Q2017.0 142 2017.0 -10V-425H1736.0V833Q1736.0 986 1728.0 1082H2001.0Q2006.0 1064 2009.5 1011.0Q2013.0 958 2013.0 906H2017.0Q2112.0 1105 2363.0 1105Q2552.0 1105 2656.0 959.5Q2760.0 814 2760.0 546ZM2467.0 546Q2467.0 910 2244.0 910Q2132.0 910 2072.5 812.0Q2013.0 714 2013.0 538Q2013.0 363 2072.5 267.5Q2132.0 172 2242.0 172Q2467.0 172 2467.0 546ZM3430.0 -20Q3186.0 -20 3055.0 124.5Q2924.0 269 2924.0 546Q2924.0 814 3057.0 958.0Q3190.0 1102 3434.0 1102Q3667.0 1102 3790.0 947.5Q3913.0 793 3913.0 495V487H3219.0Q3219.0 329 3277.5 248.5Q3336.0 168 3444.0 168Q3593.0 168 3632.0 297L3897.0 274Q3782.0 -20 3430.0 -20ZM3430.0 925Q3331.0 925 3277.5 856.0Q3224.0 787 3221.0 663H3641.0Q3633.0 794 3578.0 859.5Q3523.0 925 3430.0 925ZM4827.0 0V607Q4827.0 892 4634.0 892Q4532.0 892 4469.5 804.5Q4407.0 717 4407.0 580V0H4126.0V840Q4126.0 927 4123.5 982.5Q4121.0 1038 4118.0 1082H4386.0Q4389.0 1063 4394.0 980.5Q4399.0 898 4399.0 867H4403.0Q4460.0 991 4546.0 1047.0Q4632.0 1103 4751.0 1103Q4923.0 1103 5015.0 997.0Q5107.0 891 5107.0 687V0ZM6029.0 212Q6296.0 212 6400.0 480L6657.0 383Q6574.0 179 6413.5 79.5Q6253.0 -20 6029.0 -20Q5689.0 -20 5503.5 172.5Q5318.0 365 5318.0 711Q5318.0 1058 5497.0 1244.0Q5676.0 1430 6016.0 1430Q6264.0 1430 6420.0 1330.5Q6576.0 1231 6639.0 1038L6379.0 967Q6346.0 1073 6249.5 1135.5Q6153.0 1198 6022.0 1198Q5822.0 1198 5718.5 1074.0Q5615.0 950 5615.0 711Q5615.0 468 5721.5 340.0Q5828.0 212 6029.0 212ZM7884.0 542Q7884.0 279 7738.0 129.5Q7592.0 -20 7334.0 -20Q7081.0 -20 6937.0 130.0Q6793.0 280 6793.0 542Q6793.0 803 6937.0 952.5Q7081.0 1102 7340.0 1102Q7605.0 1102 7744.5 957.5Q7884.0 813 7884.0 542ZM7590.0 542Q7590.0 735 7527.0 822.0Q7464.0 909 7344.0 909Q7088.0 909 7088.0 542Q7088.0 361 7150.5 266.5Q7213.0 172 7331.0 172Q7590.0 172 7590.0 542ZM8107.0 0V1484H8388.0V0ZM8676.0 0V1484H8957.0V0ZM9495.0 -20Q9338.0 -20 9250.0 65.5Q9162.0 151 9162.0 306Q9162.0 474 9271.5 562.0Q9381.0 650 9589.0 652L9822.0 656V711Q9822.0 817 9785.0 868.5Q9748.0 920 9664.0 920Q9586.0 920 9549.5 884.5Q9513.0 849 9504.0 767L9211.0 781Q9238.0 939 9355.5 1020.5Q9473.0 1102 9676.0 1102Q9881.0 1102 9992.0 1001.0Q10103.0 900 10103.0 714V320Q10103.0 229 10123.5 194.5Q10144.0 160 10192.0 160Q10224.0 160 10254.0 166V14Q10229.0 8 10209.0 3.0Q10189.0 -2 10169.0 -5.0Q10149.0 -8 10126.5 -10.0Q10104.0 -12 10074.0 -12Q9968.0 -12 9917.5 40.0Q9867.0 92 9857.0 193H9851.0Q9733.0 -20 9495.0 -20ZM9822.0 501 9678.0 499Q9580.0 495 9539.0 477.5Q9498.0 460 9476.5 424.0Q9455.0 388 9455.0 328Q9455.0 251 9490.5 213.5Q9526.0 176 9585.0 176Q9651.0 176 9705.5 212.0Q9760.0 248 9791.0 311.5Q9822.0 375 9822.0 446ZM11408.0 545Q11408.0 277 11300.5 128.5Q11193.0 -20 10993.0 -20Q10878.0 -20 10794.0 30.0Q10710.0 80 10665.0 174H10663.0Q10663.0 139 10658.5 78.0Q10654.0 17 10649.0 0H10376.0Q10384.0 93 10384.0 247V1484H10665.0V1070L10661.0 894H10665.0Q10760.0 1102 11011.0 1102Q11203.0 1102 11305.5 956.5Q11408.0 811 11408.0 545ZM11115.0 545Q11115.0 729 11061.0 818.0Q11007.0 907 10894.0 907Q10780.0 907 10720.5 811.5Q10661.0 716 10661.0 536Q10661.0 364 10719.5 268.0Q10778.0 172 10892.0 172Q11115.0 172 11115.0 545Z" transform="translate(36 592.6) scale(0.068603515625 -0.068603515625)" fill="#0F172A"/>
</svg>
